<svg width="520" height="520" viewBox="0 0 520 520" fill="none" xmlns="http://www.w3.org/2000/svg">
<path d="M518 253C518 392.728 402.042 506 259 506C115.958 506 0 392.728 0 253C0 113.272 115.958 0 259 0C402.042 0 518 113.272 518 253Z" fill="#290E0E"/>
<path d="M115.037 165.534V193.726L135.239 181.979V153.788L143.376 149.089V214.869L135.239 219.568V191.376L115.037 203.123V231.314L106.9 236.013V170.233L115.037 165.534ZM135.239 191.376V219.568L127.102 214.869V186.678L135.239 191.376ZM143.376 149.089L135.239 153.788L127.102 149.089L135.239 144.391L143.376 149.089ZM135.239 153.788V181.979L127.102 177.281V149.089L135.239 153.788ZM135.239 181.979L115.037 193.726L106.9 189.027L127.102 177.281L135.239 181.979ZM115.037 165.534L106.9 170.233L98.7635 165.534L106.9 160.836L115.037 165.534ZM106.9 170.233V236.013L98.7635 231.314V165.534L106.9 170.233Z" fill="#E1253B"/>
<path d="M181.767 161.775L201.969 150.029C204.089 148.776 205.96 148.619 207.581 149.559C209.264 150.499 210.106 152.222 210.106 154.728V214.869L201.969 219.568V200.774L181.767 212.52V231.314L173.63 236.013V175.871C173.63 174.18 174.004 172.426 174.753 170.609C175.501 168.729 176.498 167.006 177.745 165.44C178.993 163.811 180.333 162.59 181.767 161.775ZM201.969 191.376V159.426L181.767 171.173V203.123L201.969 191.376ZM201.969 200.774V219.568L193.832 214.869V196.075L201.969 200.774ZM201.969 159.426V191.376L193.832 186.678V154.728L201.969 159.426ZM201.969 191.376L181.767 203.123L173.63 198.424L193.832 186.678L201.969 191.376ZM207.674 149.559C205.991 148.619 204.089 148.776 201.969 150.029L181.767 161.775C180.333 162.59 178.993 163.811 177.745 165.44C176.498 167.006 175.501 168.729 174.753 170.609C174.004 172.426 173.63 174.18 173.63 175.871V236.013L165.493 231.314V171.173C165.493 169.481 165.867 167.727 166.616 165.91C167.364 164.031 168.362 162.308 169.609 160.742C170.856 159.113 172.196 157.891 173.63 157.077L193.832 145.33C196.015 144.077 197.916 143.921 199.537 144.861L207.674 149.559Z" fill="#E1253B"/>
<path d="M260.562 158.486C262.744 157.233 264.646 157.077 266.267 158.017C267.888 158.956 268.699 160.679 268.699 163.185V210.171L280.858 203.123V146.74L288.995 142.041V207.821L268.699 219.568C266.579 220.821 264.677 220.977 262.994 220.038C261.373 219.098 260.562 217.375 260.562 214.869V167.884L248.497 174.931V231.314L240.36 236.013V170.233L260.562 158.486ZM288.995 142.041L280.858 146.74L272.721 142.041L280.858 137.343L288.995 142.041ZM280.858 146.74V203.123L272.721 198.424V142.041L280.858 146.74ZM280.858 203.123L268.699 210.171L260.562 205.472L272.721 198.424L280.858 203.123ZM260.562 167.884V214.869C260.562 217.375 261.373 219.098 262.994 220.038L254.95 215.339C253.329 214.399 252.519 212.677 252.519 210.171V163.185L260.562 167.884ZM266.267 158.017C264.646 157.077 262.744 157.233 260.562 158.486L240.36 170.233L232.223 165.534L252.519 153.788C254.639 152.535 256.509 152.378 258.13 153.318L266.267 158.017ZM240.36 170.233V236.013L232.223 231.314V165.534L240.36 170.233Z" fill="#E1253B"/>
<path d="M327.375 161.775L347.577 150.029C349.697 148.776 351.567 148.619 353.188 149.559C354.872 150.499 355.714 152.222 355.714 154.728V209.231C355.714 210.86 355.308 212.614 354.498 214.493C353.749 216.373 352.752 218.127 351.505 219.756C350.32 221.322 349.011 222.512 347.577 223.327L327.375 235.073C325.192 236.326 323.291 236.483 321.669 235.543C320.048 234.603 319.238 232.88 319.238 230.375V175.871C319.238 174.18 319.612 172.426 320.36 170.609C321.108 168.729 322.106 167.006 323.353 165.44C324.6 163.811 325.941 162.59 327.375 161.775ZM327.375 225.676L347.577 213.93V159.426L327.375 171.173V225.676ZM347.577 159.426V213.93L339.44 209.231V154.728L347.577 159.426ZM347.577 213.93L327.375 225.676L319.238 220.977L339.44 209.231L347.577 213.93ZM353.282 149.559C351.598 148.619 349.697 148.776 347.577 150.029L327.375 161.775C325.941 162.59 324.6 163.811 323.353 165.44C322.106 167.006 321.108 168.729 320.36 170.609C319.612 172.426 319.238 174.18 319.238 175.871V230.375C319.238 232.88 320.048 234.603 321.669 235.543L313.532 230.844C311.911 229.905 311.101 228.182 311.101 225.676V171.173C311.101 169.481 311.475 167.727 312.223 165.91C312.971 164.031 313.969 162.308 315.216 160.742C316.463 159.113 317.804 157.891 319.238 157.077L339.44 145.33C341.622 144.077 343.524 143.921 345.145 144.861L353.282 149.559Z" fill="#E1253B"/>
<path d="M400.558 218.158V171.173L385.968 179.63V170.233L423.192 148.619V158.017L408.601 166.474V213.46L423.192 205.002V214.399L385.968 236.013V226.616L400.558 218.158ZM400.558 218.158L385.968 226.616L377.831 221.917L392.421 213.46L400.558 218.158ZM385.968 226.616V236.013L377.831 231.314V221.917L385.968 226.616ZM423.192 205.002L408.601 213.46L400.558 208.761L415.148 200.304L423.192 205.002ZM400.558 171.173V218.158L392.421 213.46V166.474L400.558 171.173ZM423.192 148.619L385.968 170.233L377.831 165.534L415.148 143.921L423.192 148.619ZM385.968 170.233V179.63L377.831 174.931V165.534L385.968 170.233Z" fill="#E1253B"/>
<path d="M148.494 270.204L168.696 258.458C170.816 257.205 172.686 257.048 174.307 257.988C175.991 258.927 176.833 260.65 176.833 263.156V323.298L168.696 327.996V309.202L148.494 320.949V339.743L140.357 344.441V284.3C140.357 282.608 140.731 280.854 141.479 279.037C142.227 277.158 143.225 275.435 144.472 273.869C145.719 272.24 147.059 271.018 148.494 270.204ZM168.696 299.805V267.855L148.494 279.601V311.551L168.696 299.805ZM168.696 309.202V327.996L160.559 323.298V304.504L168.696 309.202ZM168.696 267.855V299.805L160.559 295.106V263.156L168.696 267.855ZM168.696 299.805L148.494 311.551L140.357 306.853L160.559 295.106L168.696 299.805ZM174.401 257.988C172.717 257.048 170.816 257.205 168.696 258.458L148.494 270.204C147.059 271.018 145.719 272.24 144.472 273.869C143.225 275.435 142.227 277.158 141.479 279.037C140.731 280.854 140.357 282.608 140.357 284.3V344.441L132.22 339.743V279.601C132.22 277.91 132.594 276.156 133.342 274.339C134.09 272.459 135.088 270.737 136.335 269.17C137.582 267.541 138.923 266.32 140.357 265.505L160.559 253.759C162.741 252.506 164.643 252.349 166.264 253.289L174.401 257.988Z" fill="#E1253B"/>
<path d="M215.223 334.105L235.425 322.358V331.755L215.223 343.502C213.041 344.755 211.139 344.911 209.518 343.972C207.897 343.032 207.087 341.309 207.087 338.803V264.566L215.223 259.867V334.105ZM215.223 259.867L207.087 264.566L198.95 259.867L207.087 255.169L215.223 259.867ZM235.425 322.358L215.223 334.105L207.087 329.406L227.289 317.66L235.425 322.358ZM207.087 264.566V338.803C207.087 341.309 207.897 343.032 209.518 343.972L201.381 339.273C199.76 338.333 198.95 336.61 198.95 334.105V259.867L207.087 264.566Z" fill="#E1253B"/>
<path d="M273.733 334.105L293.935 322.358V331.755L273.733 343.502C271.551 344.755 269.649 344.911 268.028 343.972C266.407 343.032 265.596 341.309 265.596 338.803V264.566L273.733 259.867V334.105ZM273.733 259.867L265.596 264.566L257.459 259.867L265.596 255.169L273.733 259.867ZM293.935 322.358L273.733 334.105L265.596 329.406L285.798 317.66L293.935 322.358ZM265.596 264.566V338.803C265.596 341.309 266.407 343.032 268.028 343.972L259.891 339.273C258.27 338.333 257.459 336.61 257.459 334.105V259.867L265.596 264.566Z" fill="#E1253B"/>
<path d="M324.106 288.059C324.106 286.367 324.48 284.613 325.228 282.796C325.976 280.917 326.974 279.194 328.221 277.628C329.468 275.999 330.809 274.777 332.243 273.963L360.582 257.518V266.915L332.243 283.36V304.034L360.582 287.589V296.986L332.243 313.431V334.105L360.582 317.66V327.057L332.243 343.502C330.06 344.755 328.159 344.911 326.538 343.972C324.916 343.032 324.106 341.309 324.106 338.803V288.059ZM360.582 317.66L332.243 334.105L324.106 329.406L352.445 312.961L360.582 317.66ZM360.582 287.589L332.243 304.034L324.106 299.335L352.445 282.89L360.582 287.589ZM360.582 257.518L332.243 273.963C330.809 274.777 329.468 275.999 328.221 277.628C326.974 279.194 325.976 280.917 325.228 282.796C324.48 284.613 324.106 286.367 324.106 288.059V338.803C324.106 341.309 324.916 343.032 326.538 343.972L318.401 339.273C316.78 338.333 315.969 336.61 315.969 334.105V283.36C315.969 281.669 316.343 279.914 317.091 278.098C317.84 276.218 318.837 274.495 320.084 272.929C321.331 271.3 322.672 270.079 324.106 269.264L352.445 252.819L360.582 257.518Z" fill="#E1253B"/>
<path d="M405.426 317.19L398.973 320.949C396.79 322.202 394.889 322.358 393.267 321.418C391.646 320.479 390.836 318.756 390.836 316.25V278.661L398.973 273.963V311.551L420.016 299.335V261.747L428.06 257.048V294.637C428.06 296.265 427.686 298.02 426.937 299.899C426.189 301.778 425.192 303.533 423.945 305.161C422.76 306.728 421.451 307.918 420.016 308.732L413.469 312.491V340.683L405.426 345.381V317.19ZM405.426 317.19V345.381L397.289 340.683V312.491L405.426 317.19ZM428.06 257.048L420.016 261.747L411.88 257.048L420.016 252.349L428.06 257.048ZM420.016 261.747V299.335L411.88 294.637V257.048L420.016 261.747ZM420.016 299.335L398.973 311.551L390.836 306.853L411.88 294.637L420.016 299.335ZM398.973 273.963L390.836 278.661L382.699 273.963L390.836 269.264L398.973 273.963ZM390.836 278.661V316.25C390.836 318.756 391.646 320.479 393.267 321.418L385.131 316.72C383.509 315.78 382.699 314.057 382.699 311.551V273.963L390.836 278.661Z" fill="#E1253B"/>
</svg>
