<svg width="66" height="57" viewBox="0 0 66 57" fill="none" xmlns="http://www.w3.org/2000/svg">
<path d="M44.7316 7.71838C47.8784 7.7266 50.8936 8.82404 53.1187 10.771C55.3438 12.718 56.5981 15.3563 56.6075 18.1097V38.8903C56.5981 41.6437 55.3438 44.282 53.1187 46.229C50.8936 48.176 47.8784 49.2734 44.7316 49.2816H20.9825C17.8357 49.2734 14.8205 48.176 12.5954 46.229C10.3702 44.282 9.11603 41.6437 9.10663 38.8903V18.1097C9.11603 15.3563 10.3702 12.718 12.5954 10.771C14.8205 8.82404 17.8357 7.7266 20.9825 7.71838H44.7316ZM44.7316 3.5625H20.9825C11.8383 3.5625 4.35706 10.1086 4.35706 18.1097V38.8903C4.35706 46.8914 11.8383 53.4375 20.9825 53.4375H44.7316C53.8758 53.4375 61.357 46.8914 61.357 38.8903V18.1097C61.357 10.1086 53.8758 3.5625 44.7316 3.5625Z" fill="black"/>
<path d="M48.2941 18.1097C47.5895 18.1097 46.9008 17.9269 46.3149 17.5844C45.7291 17.2419 45.2724 16.755 45.0028 16.1855C44.7332 15.6159 44.6626 14.9891 44.8001 14.3844C44.9375 13.7797 45.2768 13.2243 45.7751 12.7884C46.2733 12.3524 46.9081 12.0555 47.5991 11.9353C48.2902 11.815 49.0065 11.8767 49.6574 12.1126C50.3084 12.3486 50.8648 12.7481 51.2562 13.2607C51.6477 13.7734 51.8566 14.376 51.8566 14.9926C51.8576 15.4022 51.7662 15.8079 51.5875 16.1865C51.4088 16.5651 51.1465 16.9091 50.8154 17.1987C50.4844 17.4883 50.0913 17.7179 49.6586 17.8743C49.226 18.0306 48.7622 18.1106 48.2941 18.1097Z" fill="black"/>
<path d="M32.8571 20.1871C34.7361 20.1871 36.5729 20.6747 38.1352 21.5881C39.6975 22.5015 40.9152 23.7998 41.6343 25.3188C42.3534 26.8378 42.5415 28.5092 42.1749 30.1218C41.8083 31.7343 40.9035 33.2155 39.5749 34.3781C38.2462 35.5407 36.5534 36.3324 34.7105 36.6531C32.8676 36.9739 30.9574 36.8093 29.2214 36.1801C27.4854 35.5509 26.0017 34.4854 24.9577 33.1184C23.9138 31.7513 23.3566 30.1441 23.3566 28.5C23.3593 26.296 24.3611 24.183 26.1422 22.6245C27.9233 21.0661 30.3382 20.1895 32.8571 20.1871ZM32.8571 16.0312C30.0387 16.0312 27.2836 16.7625 24.9402 18.1326C22.5968 19.5027 20.7703 21.45 19.6918 23.7284C18.6132 26.0068 18.331 28.5138 18.8809 30.9325C19.4307 33.3512 20.7879 35.573 22.7808 37.3167C24.7737 39.0605 27.3128 40.2481 30.077 40.7292C32.8412 41.2103 35.7064 40.9634 38.3103 40.0196C40.9141 39.0759 43.1397 37.4777 44.7055 35.4273C46.2713 33.3768 47.107 30.9661 47.107 28.5C47.107 25.1931 45.6057 22.0216 42.9333 19.6833C40.2609 17.3449 36.6364 16.0312 32.8571 16.0312Z" fill="black"/>
</svg>
